<svg id="Layer_1" data-name="Layer 1" xmlns="http://www.w3.org/2000/svg" xmlns:xlink="http://www.w3.org/1999/xlink" viewBox="0 0 696 468"><defs><style>.cls-1{fill:none;stroke:#fff;stroke-miterlimit:10;stroke-width:16px;}.cls-2{fill:#fff;}</style></defs><image width="4096" height="2731" transform="translate(6 8) scale(0.17)" xlink:href="../../../../Downloads/pexels-jordan-hyde-1070360%20(2).jpg"/><rect class="cls-1" x="6" width="197" height="141" rx="29.2"/><rect class="cls-1" x="-3" y="327" width="318" height="141" rx="29.2"/><rect class="cls-1" x="323" y="327" width="192" height="141" rx="29.2"/><rect class="cls-1" x="9" y="163" width="506" height="141" rx="29.2"/><rect class="cls-1" x="456.5" y="234.5" width="315" height="152" rx="29.2" transform="translate(924.5 -303.5) rotate(90)"/><rect class="cls-1" x="217" width="473" height="141" rx="29.2"/><rect class="cls-2" y="134" width="211" height="31"/><rect class="cls-2" x="-85" y="218" width="163" height="31" transform="translate(230 237) rotate(90)"/><rect class="cls-2" x="125" y="64" width="163" height="21" transform="translate(281 -132) rotate(90)"/><rect class="cls-2" x="443.5" y="223.5" width="504" height="21" transform="translate(929.5 -461.5) rotate(90)"/><rect class="cls-2" x="-3" y="300" width="541" height="31"/><rect class="cls-2" x="6" y="134" width="715" height="25"/><rect class="cls-2" x="363" y="304" width="326" height="30" transform="translate(845 -207) rotate(90)"/><rect class="cls-2" x="301" y="457" width="38" height="38" transform="translate(796 156) rotate(90)"/><rect class="cls-2" x="499" y="140" width="38" height="32" transform="translate(674 -362) rotate(90)"/><rect class="cls-2" x="307" y="327" width="16" height="31"/><rect class="cls-2" x="198" y="110" width="13" height="31"/></svg>